<svg width="25" height="25" viewBox="0 0 25 25" fill="none" xmlns="http://www.w3.org/2000/svg">
<path d="M2.0834 2.0834H3.89591C5.02091 2.0834 5.90632 3.05215 5.81257 4.16674L4.94799 14.5417C4.80215 16.2396 6.1459 17.698 7.85423 17.698H18.948C20.448 17.698 21.7605 16.4688 21.8751 14.9792L22.4376 7.16674C22.5626 5.43758 21.2501 4.03132 19.5105 4.03132H6.06258" stroke="#121212" stroke-width="2" stroke-miterlimit="10" stroke-linecap="round" stroke-linejoin="round"/>
<path d="M16.9271 22.9167C17.6462 22.9167 18.2292 22.3337 18.2292 21.6146C18.2292 20.8955 17.6462 20.3125 16.9271 20.3125C16.208 20.3125 15.625 20.8955 15.625 21.6146C15.625 22.3337 16.208 22.9167 16.9271 22.9167Z" stroke="#121212" stroke-width="2" stroke-miterlimit="10" stroke-linecap="round" stroke-linejoin="round"/>
<path d="M8.59368 22.9167C9.3128 22.9167 9.89576 22.3337 9.89576 21.6146C9.89576 20.8955 9.3128 20.3125 8.59368 20.3125C7.87456 20.3125 7.2916 20.8955 7.2916 21.6146C7.2916 22.3337 7.87456 22.9167 8.59368 22.9167Z" stroke="#121212" stroke-width="2" stroke-miterlimit="10" stroke-linecap="round" stroke-linejoin="round"/>
<path d="M9.375 8.3334H21.875" stroke="#121212" stroke-width="2" stroke-miterlimit="10" stroke-linecap="round" stroke-linejoin="round"/>
</svg>
