<svg width="24" height="24" viewBox="0 0 24 24" fill="none" xmlns="http://www.w3.org/2000/svg">
<path d="M17.29 9.29C17.1975 9.1973 17.0876 9.12375 16.9666 9.07357C16.8456 9.02339 16.7159 8.99756 16.585 8.99756C16.454 8.99756 16.3243 9.02339 16.2034 9.07357C16.0824 9.12375 15.9725 9.1973 15.88 9.29L12 13.17L8.11998 9.29C8.0274 9.19742 7.91749 9.12398 7.79652 9.07388C7.67556 9.02377 7.54591 8.99798 7.41498 8.99798C7.28405 8.99798 7.1544 9.02377 7.03343 9.07388C6.91247 9.12398 6.80256 9.19742 6.70998 9.29C6.6174 9.38258 6.54396 9.4925 6.49385 9.61346C6.44375 9.73442 6.41796 9.86407 6.41796 9.995C6.41796 10.1259 6.44375 10.2556 6.49385 10.3765C6.54396 10.4975 6.6174 10.6074 6.70998 10.7L11.3 15.29C11.3925 15.3827 11.5024 15.4563 11.6234 15.5064C11.7443 15.5566 11.874 15.5824 12.005 15.5824C12.1359 15.5824 12.2656 15.5566 12.3866 15.5064C12.5076 15.4563 12.6175 15.3827 12.71 15.29L17.3 10.7C17.68 10.32 17.68 9.68 17.29 9.29Z" fill="black"/>
</svg>
