<svg width="21" height="21" viewBox="0 0 21 21" fill="none" xmlns="http://www.w3.org/2000/svg">
<path d="M18.375 18.3752L14.5749 14.5751M14.5749 14.5751C15.2249 13.925 15.7405 13.1533 16.0923 12.304C16.4441 11.4547 16.6252 10.5445 16.6252 9.62518C16.6252 8.7059 16.4441 7.79563 16.0923 6.94633C15.7405 6.09703 15.2249 5.32533 14.5749 4.67531C13.9248 4.02528 13.1532 3.50965 12.3039 3.15786C11.4545 2.80607 10.5443 2.625 9.625 2.625C8.70572 2.625 7.79545 2.80607 6.94614 3.15786C6.09684 3.50965 5.32515 4.02528 4.67512 4.67531C3.36233 5.98809 2.62482 7.76862 2.62482 9.62518C2.62482 11.4817 3.36233 13.2623 4.67512 14.5751C5.98791 15.8878 7.76843 16.6254 9.625 16.6254C11.4816 16.6254 13.2621 15.8878 14.5749 14.5751Z" stroke="black" stroke-opacity="0.4" stroke-linecap="round" stroke-linejoin="round"/>
</svg>
